{"title":"Scream the TV Series S01E08 720p HDTV EN-SUB x264-[MULVAcoded]","uid":12250029,"size":182412538,"categoryP":"video","categoryS":"tv_shows","magnet":"?xt=urn:btih:1adec4f9af850d5582594b1611d6031a45d9e8fc&amp;dn=Scream+the+TV+Series+S01E08+720p+HDTV+EN-SUB+x264-%5BMULVAcoded%5D&amp;tr=udp%3A%2F%2Ftracker.openbittorrent.com%3A80&amp;tr=udp%3A%2F%2Fopen.demonii.com%3A1337&amp;tr=udp%3A%2F%2Ftracker.coppersurfer.tk%3A6969&amp;tr=udp%3A%2F%2Fexodus.desync.com%3A6969","seeders":8,"leechers":0,"uploader":"Mulva1989","files":2,"time":1439999786,"description":"Scream the TV Series S01E08 720p HDTV EN-SUB x264-[MULVAcoded]\n\nEmma is in shock after witnessing Will's murder, leaving her mind haunted and pushing toward something hidden. Brooke confronts her dad about the video while Noah and Aubrey focus their investigation into Branson.\n\nScreens @ &lt;a href=&quot;\nhttps://yuq.me/users/50/321/Js623NZkXB.jpg&quot; rel=&quot;nofollow&quot; target=&quot;_NEW&quot;&gt;\nhttps://yuq.me/users/50/321/Js623NZkXB.jpg&lt;/a&gt; &lt;a href=&quot;\nhttps://yuq.me/users/50/321/XOKlI2hwtg.jpg&quot; rel=&quot;nofollow&quot; target=&quot;_NEW&quot;&gt;\nhttps://yuq.me/users/50/321/XOKlI2hwtg.jpg&lt;/a&gt; &lt;a href=&quot;\nhttps://yuq.me/users/50/321/OaMH2iEwGr.jpg&quot; rel=&quot;nofollow&quot; target=&quot;_NEW&quot;&gt;\nhttps://yuq.me/users/50/321/OaMH2iEwGr.jpg&lt;/a&gt;\n\nFormat : MPEG-4\nFormat profile : Base Media\nCodec ID : isom\nFile size : 174 MiB\nDuration : 39mn 19s\nOverall bit rate mode : Variable\nOverall bit rate : 619 Kbps\nEncoded date : UTC 2015-08-19 13:42:24\nTagged date : UTC 2015-08-19 13:42:24\n\nVideo\nID : 2\nFormat : AVC\nFormat/Info : Advanced Video Codec\nFormat profile : &lt;a class=&quot;__cf_email__&quot; href=&quot;/cdn-cgi/l/email-protection&quot; data-cfemail=&quot;2f674648476f631a011f&quot;&gt;[email&amp;#160;protected]&lt;/a&gt;&lt;script data-cfhash='f9e31' type=&quot;text/javascript&quot;&gt;\n/* &lt;![CDATA[ */!function(){try{var t=&quot;currentScript&quot;in document?document.currentScript:function(){for(var t=document.getElementsByTagName(&quot;script&quot;),e=t.length;e--;)if(t[e].getAttribute(&quot;data-cfhash&quot;))return t[e]}();if(t&amp;&amp;t.previousSibling){var e,r,n,i,c=t.previousSibling,a=c.getAttribute(&quot;data-cfemail&quot;);if(a){for(e=&quot;&quot;,r=parseInt(a.substr(0,2),16),n=2;a.length-n;n+=2)i=parseInt(a.substr(n,2),16)^r,e+=String.fromCharCode(i);e=document.createTextNode(e),c.parentNode.replaceChild(e,c)}t.parentNode.removeChild(t);}}catch(u){}}()/* ]]&gt; */&lt;/script&gt;\nFormat settings, CABAC : Yes\nFormat settings, ReFrames : 16 frames\nCodec ID : avc1\nCodec ID/Info : Advanced Video Coding\nDuration : 39mn 19s\nBit rate : 518 Kbps\nMaximum bit rate : 2 676 Kbps\nWidth : 1 280 pixels\nHeight : 720 pixels\nDisplay aspect ratio : 16:9\nFrame rate mode : Variable\nFrame rate : 23.976 fps\nMinimum frame rate : 23.974 fps\nMaximum frame rate : 23.981 fps\nColor space : YUV\nChroma subsampling : 4:2:0\nBit depth : 8 bits\nScan type : Progressive\nBits/(Pixel*Frame) : 0.023\nStream size : 146 MiB (84%)\nWriting library : x264 core 130 r2273 b3065e6\nEncoding settings : cabac=1 / ref=16 / deblock=1:0:0 / analyse=0x3:0x113 / me=umh / subme=8 / psy=1 / psy_rd=1.00:0.00 / mixed_ref=1 / me_range=16 / chroma_me=1 / trellis=1 / 8x8dct=1 / cqm=0 / deadzone=21,11 / fast_pskip=1 / chroma_qp_offset=-2 / threads=6 / lookahead_threads=3 / sliced_threads=0 / nr=0 / decimate=1 / interlaced=0 / bluray_compat=0 / constrained_intra=0 / bframes=16 / b_pyramid=2 / b_adapt=2 / b_bias=0 / direct=3 / weightb=1 / open_gop=0 / weightp=2 / keyint=240 / keyint_min=24 / scenecut=40 / intra_refresh=0 / rc_lookahead=50 / rc=crf / mbtree=1 / crf=27.0 / qcomp=0.60 / qpmin=0 / qpmax=69 / qpstep=4 / ip_ratio=1.40 / aq=1:1.00\nEncoded date : UTC 2015-08-19 05:50:50\nTagged date : UTC 2015-08-19 13:42:30\nColor primaries : BT.709\nTransfer characteristics : BT.709\nMatrix coefficients : BT.709\nColor range : Limited\n\nAudio\nID : 1\nFormat : AAC\nFormat/Info : Advanced Audio Codec\nFormat profile : LC\nCodec ID : 40\nDuration : 39mn 19s\nBit rate mode : Variable\nBit rate : 96.0 Kbps\nMaximum bit rate : 121 Kbps\nChannel(s) : 2 channels\nChannel positions : Front: L R\nSampling rate : 48.0 KHz\nCompression mode : Lossy\nStream size : 27.0 MiB (16%)\nEncoded date : UTC 2015-08-19 13:42:24\nTagged date : UTC 2015-08-19 13:42:30\n\nText\nID : 3\nFormat : Timed Text\nMuxing mode : sbtl\nCodec ID : tx3g\nDuration : 39mn 12s\nBit rate mode : Variable\nBit rate : 75 bps\nStream size : 21.6 KiB (0%)\nTitle : 1Scream.the.TV.Series.S01E08.720p.HDTV.EN-SUB.x264-[MULVAcoded].srt:hdlr=sbtl:lang=en:group=2:layer=-1 - Imported with GPAC 0.5.0-rev\nLanguage : English\nEncoded date : UTC 2015-08-19 13:42:30\nTagged date : UTC 2015-08-19 13:42:30","torrent":{"xt":"urn:btih:1adec4f9af850d5582594b1611d6031a45d9e8fc","amp;dn":"Scream+the+TV+Series+S01E08+720p+HDTV+EN-SUB+x264-%5BMULVAcoded%5D","amp;tr":["udp%3A%2F%2Ftracker.openbittorrent.com%3A80","udp%3A%2F%2Fopen.demonii.com%3A1337","udp%3A%2F%2Ftracker.coppersurfer.tk%3A6969","udp%3A%2F%2Fexodus.desync.com%3A6969"],"infoHash":"1adec4f9af850d5582594b1611d6031a45d9e8fc","infoHashBuffer":{"type":"Buffer","data":[26,222,196,249,175,133,13,85,130,89,75,22,17,214,3,26,69,217,232,252]},"announce":[],"urlList":[]}}